<svg id="egPNojYX8QA1" xmlns="http://www.w3.org/2000/svg" xmlns:xlink="http://www.w3.org/1999/xlink" viewBox="0 0 300 300" shape-rendering="geometricPrecision" text-rendering="geometricPrecision"><path d="M53.79148,150c0-34.09331,43.07402-61.73139,96.20852-61.73139s96.20852,27.63809,96.20852,61.73139-43.07402,61.73139-96.20852,61.73139-96.20852-27.63809-96.20852-61.73139ZM150,203.86278c47.20876,0,85.47903-24.11519,85.47903-53.86278s-38.27026-53.86278-85.47903-53.86278-85.47903,24.11519-85.47903,53.86278s38.27026,53.86278,85.47903,53.86278Z" fill="#d2dbed" stroke-width="0"/><path d="M53.79148,150c0-34.09331,41.426396-61.73139,92.528448-61.73139s92.528447,27.63809,92.528447,61.73139-41.426395,61.73139-92.528447,61.73139-92.528448-27.63809-92.528448-61.73139Zm92.528448,53.86278c45.402977,0,82.209371-24.11519,82.209371-53.86278s-36.806384-53.86278-82.209371-53.86278-82.209372,24.11519-82.209372,53.86278s36.806384,53.86278,82.209372,53.86278Z" transform="matrix(.271376 0 0 0.409037 109.2936 88.64445)" fill="#d2dbed" stroke-width="0"/><rect width="179.542203" height="190.987124" rx="0" ry="0" transform="matrix(1.221779 0.569725 0.01343-.0288 39.037117 101.605357)" fill="#d2dbed" stroke-width="0"/></svg>